<?xml version="1.0" standalone="no"?>
<!DOCTYPE svg PUBLIC "-//W3C//DTD SVG 1.1//EN" "http://www.w3.org/Graphics/SVG/1.1/DTD/svg11.dtd" >
<!--
2013-9-30: Created.
-->
<svg>
<metadata>
Created by iconfont
</metadata>
<defs>

<font id="iconfont" horiz-adv-x="1024" >
  <font-face
    font-family="iconfont"
    font-weight="500"
    font-stretch="normal"
    units-per-em="1024"
    ascent="896"
    descent="-128"
  />
    <missing-glyph />
    
    <glyph glyph-name="menu-car" unicode="&#58885;" d="M895.956 708.447c-11.352 3.515-23.766 4.946-35.705 4.996-94.785 0.388-189.57 0.215-284.358 0.215-96.327 0-192.65 0-288.972 0.011-2.496 0-5.003 0.066-7.495-0.08-15.774-0.915-27.86-16.097-25.253-31.675a32.841 32.841 0 0 1 1.582-5.953c12.873-47.687 25.738-95.375 38.614-143.059 10.51-38.91 20.947-77.836 31.557-116.722 2.878-10.537 10.51-17.936 19.874-20.316l-0.115-0.556 3.06-0.006c2.059-0.281 4.174-0.352 6.331-0.144 0.367 0.036 0.724 0.086 1.086 0.133 47.66-0.071 95.319-0.15 142.977-0.218 40.306-0.054 80.606-0.184 120.913-0.135 14.367 0.02 25.67 9.388 27.926 22.623 3.18 18.647-9.934 32.947-30.329 32.973-81.168 0.107-162.336 0.207-243.504 0.312-18.67 69.11-37.345 138.218-56.017 207.328 179.18-0.005 358.358 0.002 537.538-0.045 5.941 0 11.883-0.673 17.827-0.934 3.419-0.154 4.942-1.715 4.292-5.153-1.035-5.46-1.723-11.021-3.188-16.362-25.238-91.989-50.693-183.92-75.796-275.949-6.303-23.106-11.583-46.49-17.243-69.77-3.257-13.386-14.666-21.384-30.955-21.384-145.736-0.008-291.476-0.008-437.212-0.004-1.534 0-3.08-0.042-4.61 0.066-14.775 1.034-24.946 10.594-27.019 25.217-0.699 4.93-1.241 9.94-2.564 14.717-35.013 126.324-70.117 252.622-105.202 378.923-10.79 38.835-21.507 77.685-32.398 116.492-3.884 13.832-15.947 22.199-29.301 20.811-18.816-1.953-29.06-18.43-23.6-38.08 41.32-148.682 82.683-297.348 123.937-446.049 4.971-17.923 11.024-35.765 13.686-54.066 6.051-41.626 40.171-73.47 82.337-73.528 148.812-0.2 297.627-0.176 446.44-0.011 39.772 0.042 73.358 28.233 81.122 67.206 1.05 5.264 1.293 10.725 2.707 15.873 27.222 99.208 54.69 198.345 81.761 297.594 5.037 18.47 9.94 37.162 12.494 56.077 3.643 26.986-11.634 50.707-37.225 58.632zM369.68 157.347c-46.628 2.634-85.544-33.066-88.044-80.772-2.337-44.625 33.913-83.645 79.946-86.056 44.472-2.323 84.637 33.762 86.76 77.954 2.265 47.117-32.378 86.26-78.661 88.874z m-4.668-111.166c-15.427 0.046-27.794 12.563-27.648 27.98 0.15 15.407 12.801 27.902 28.029 27.666 15.243-0.238 27.798-13.17 27.506-28.332-0.292-15.066-12.84-27.356-27.887-27.314zM699.106 157.44c-46.221 0.096-83.598-37.235-83.602-83.496 0-45.987 37.185-83.36 83.072-83.487 46.125-0.127 83.602 37.308 83.61 83.53 0.008 45.984-37.197 83.357-83.08 83.453z m-0.434-111.259c-15.131 0.103-27.502 12.428-27.617 27.525-0.12 15.331 12.366 28.03 27.655 28.124 15.263 0.093 27.837-12.504 27.833-27.878-0.004-15.43-12.493-27.874-27.871-27.771z"  horiz-adv-x="1024" />

    
    <glyph glyph-name="menu-home" unicode="&#58886;" d="M512.852-64.993H215.024c-44.966 0-84.41 38.277-84.41 81.927 0 99.942 103.814 247.438 209.58 297.758 12.917 6.17 28.419 0.665 34.583-12.283 6.158-12.943 0.653-28.427-12.284-34.585-95.242-45.309-179.98-178.035-179.98-250.89 0-15.154 16.103-30.029 32.51-30.029h297.828c14.33 0 25.948-11.619 25.948-25.949 0-14.33-11.617-25.949-25.947-25.949zM810.679-64.993H512.852c-14.33 0-25.95 11.619-25.95 25.948 0 14.33 11.62 25.949 25.95 25.949h297.827c16.409 0 32.511 14.875 32.511 30.029 0 72.854-84.738 205.58-179.98 250.89-12.937 6.158-18.442 21.64-12.284 34.585 6.157 12.935 21.634 18.453 34.583 12.283 105.764-50.32 209.58-197.816 209.58-297.758 0-43.648-39.443-81.926-84.41-81.926zM516.741 318.227c-140.664 0-255.103 114.438-255.103 255.103 0 140.66 114.439 255.097 255.103 255.097 140.66 0 255.097-114.438 255.097-255.103 0-140.66-114.437-255.097-255.097-255.097z m0 458.302c-112.048 0-203.206-91.157-203.206-203.2 0-112.05 91.158-203.206 203.206-203.206 112.043 0 203.2 91.156 203.2 203.199 0 112.05-91.157 203.207-203.2 203.207zM370.52 560.356c-7.165 0-12.974 5.809-12.974 12.974 0 87.78 71.416 159.189 159.195 159.189 7.166 0 12.976-5.81 12.976-12.975s-5.81-12.974-12.976-12.974c-73.474 0-133.246-59.773-133.246-133.241 0-7.164-5.81-12.973-12.975-12.973zM397.438 520.887c0-7.241-5.872-13.114-13.113-13.114-7.235 0-13.108 5.873-13.108 13.114 0 7.234 5.873 13.107 13.108 13.107 7.24 0.001 13.113-5.872 13.113-13.107z"  horiz-adv-x="1024" />

    
    <glyph glyph-name="menu-sort" unicode="&#58887;" d="M673.087 439.727c26.571-26.554 69.632-26.554 96.202 0l105.807 105.807c26.571 26.554 26.571 69.63 0 96.186L769.29 747.526c-26.57 26.587-69.63 26.587-96.202 0L567.28 641.72c-26.554-26.554-26.554-69.631 0-96.186l105.807-105.807zM606.89 610.984l96.95 96.932c9.723 9.759 25.517 9.759 35.241 0l96.933-96.932c9.742-9.725 9.742-25.5 0-35.224l-96.933-96.966c-9.724-9.725-25.518-9.725-35.24 0L606.89 575.76c-9.725 9.723-9.725 25.5 0 35.224z m201.55-261.288H634.362c-48.058 0-87.023-38.964-87.023-87.04v-174.078c0-48.042 38.965-87.04 87.023-87.04H808.44c48.074 0 87.04 38.997 87.04 87.04v174.08c0 48.074-38.965 87.038-87.04 87.038z m34.832-261.117c0-19.21-15.589-34.815-34.832-34.815H634.362c-19.21 0-34.816 15.605-34.816 34.815V262.657c0 19.244 15.606 34.815 34.816 34.815H808.44c19.243 0 34.832-15.572 34.832-34.815V88.58zM390.668 349.696H216.574c-48.058 0-87.031-38.964-87.031-87.04v-174.078c0-48.042 38.973-87.04 87.031-87.04h174.094c48.059 0 87.023 38.997 87.023 87.04v174.08c0 48.074-38.964 87.038-87.023 87.038z m34.8-261.117c0-19.21-15.58-34.815-34.8-34.815H216.574c-19.218 0-34.809 15.605-34.809 34.815V262.657c0 19.244 15.59 34.815 34.81 34.815h174.093c19.22 0 34.8-15.572 34.8-34.815V88.58z m-34.8 678.905H216.574c-48.058 0-87.031-38.963-87.031-87.04v-174.078c0-48.042 38.973-87.04 87.031-87.04h174.094c48.059 0 87.023 38.998 87.023 87.04V680.445c0 48.076-38.964 87.039-87.023 87.039z m34.8-261.118c0-19.21-15.58-34.816-34.8-34.816H216.574c-19.218 0-34.809 15.605-34.809 34.816V680.445c0 19.243 15.59 34.815 34.81 34.815h174.093c19.22 0 34.8-15.572 34.8-34.815v-174.08z"  horiz-adv-x="1024" />

    
    <glyph glyph-name="menu-index" unicode="&#58888;" d="M214.911 693.37h590.494c12.997 0 23.538 10.54 23.538 23.537s-10.541 23.538-23.538 23.538H214.91c-12.997 0-23.538-10.54-23.538-23.538s10.541-23.537 23.538-23.537zM916.237 478.868L844.293 642.2h-676.97l-50.248-147.47c-2.763-5.628-4.912-11.973-6.447-18.932l-0.921-2.559 0.307-0.102c-1.637-8.392-2.354-17.705-2.354-28.143 0-26.71 10.439-50.555 30.088-69.079 17.09-16.067 40.833-27.12 66.725-30.906 6.14-0.921 12.382-1.33 18.523-1.33 30.394 0 60.584 10.847 83.406 30.496 2.149 1.843 4.093 3.685 6.038 5.63 3.889-6.346 8.392-12.384 13.406-17.808 21.594-23.845 50.453-36.944 81.462-36.944 30.497 0 60.789 13.202 83.099 36.33a141.722 141.722 0 0 1 11.36 13.509c5.014-6.345 10.847-12.485 17.294-18.114 25.38-22.105 57.31-34.795 87.807-34.795 30.394 0 62.426 13.509 87.909 36.944a134.032 134.032 0 0 1 15.965 17.398c5.526-8.29 12.076-15.76 19.342-22.106 15.248-13.201 40.935-27.631 80.438-27.631 5.73 0 11.769 0.307 18.011 0.921 56.696 5.936 97.836 48.1 97.836 100.19 0 21.388-3.275 37.865-10.132 51.169z m-92.616-104.59c-26.506-2.763-47.69 2.456-62.734 15.555-14.225 12.28-23.23 32.032-24.05 52.807a24.94 24.94 0 0 1-1.125 6.243c-1.842 11.155-11.564 19.649-23.23 19.649-12.998 0-23.539-10.541-23.539-23.538 0-17.398-9.517-36.228-26.198-51.579-16.58-15.35-37.456-24.459-55.877-24.459-18.933 0-40.22 8.699-56.798 23.231-14.123 12.28-23.026 27.12-25.38 41.754 0.41 3.684 0.512 7.369 0.512 11.053 0 12.997-10.541 23.538-23.538 23.538-10.746 0-19.854-7.266-22.617-17.193-1.33-2.968-2.15-6.243-2.15-9.722 0-2.456 0.103-5.015 0.308-7.471-2.456-14.635-9.62-28.757-20.57-40.117-13.509-14.02-31.52-22.003-49.327-22.003-17.5 0-34.08 7.573-46.564 21.491-12.588 13.816-19.752 32.647-19.752 51.477 0 12.997-10.54 23.538-23.538 23.538-12.69 0-23.026-10.03-23.538-22.617-0.102-1.024-0.204-2.15-0.204-3.275 0-11.053-6.55-23.026-18.012-32.953-17.193-14.84-41.242-21.593-64.268-18.216-41.857 6.242-56.696 32.646-56.696 53.42 0 7.164 0.512 13.407 1.433 18.626l4.196 12.383c0.102 0.205 0.307 0.512 0.409 0.716 2.456 3.787 3.786 7.88 3.889 12.076l36.33 106.433h612.599l56.184-127.617c0.614-2.865 1.74-5.73 3.48-8.29 0.204-0.306 0.409-0.716 0.613-1.023l1.024-2.251 0.102 0.102c2.865-6.345 4.298-15.862 4.298-28.45 0-22.924-17.397-49.327-55.672-53.318zM836.106 260.477v7.164h-0.102l-0.307 16.374c-36.637-0.716-69.795 15.249-86.374 24.766-14.532 8.392-32.953 7.676-46.769-1.944-33.464-23.129-66.417-32.544-98.04-27.734-26.608 3.991-46.462 17.193-55.98 24.766-14.736 11.666-35.204 12.69-51.066 2.354-72.046-47.076-127.514-21.39-154.122-1.945-15.862 11.667-37.763 11.155-53.216-1.33-23.436-18.83-68.976-21.594-84.532-20.98l-0.102-1.842h-2.866l-1.944-273.244c-0.102-10.438 3.889-20.263 11.257-27.631 7.369-7.369 17.09-11.462 27.53-11.462H797.32c21.389 0 38.786 17.397 38.786 38.786V236.94h0.41l-0.41 23.538zM247.864 14.865l1.535 223.302c28.246 4.606 51.17 13.51 68.158 26.506 18.42-13.1 53.523-32.441 99.473-32.441 30.497 0 65.804 8.494 104.18 33.158 16.272-12.588 42.164-27.837 76.345-32.953 7.778-1.126 15.556-1.74 23.333-1.74 35.614 0 71.433 12.076 106.842 36.228 13.61-7.676 35.307-18.217 61.403-24.46v-227.6H247.864z"  horiz-adv-x="1024" />

    
    <glyph glyph-name="icon-checked" unicode="&#58898;" d="M512 832C264.576 832 64 631.424 64 384s200.576-448 448-448 448 200.576 448 448S759.424 832 512 832z m271.529-719.529c-35.286-35.287-76.359-62.983-122.078-82.321C614.15 10.144 563.868 0 512 0c-51.868 0-102.15 10.144-149.451 30.15-45.719 19.337-86.792 47.034-122.078 82.321-35.287 35.286-62.983 76.359-82.321 122.078C138.144 281.85 128 332.132 128 384s10.144 102.15 30.15 149.451c19.337 45.719 47.034 86.792 82.321 122.078 35.286 35.287 76.359 62.983 122.078 82.321C409.85 757.856 460.132 768 512 768c51.868 0 102.15-10.144 149.451-30.15 45.719-19.337 86.792-47.034 122.078-82.321 35.287-35.286 62.983-76.359 82.321-122.078C885.856 486.15 896 435.868 896 384s-10.144-102.15-30.15-149.451c-19.338-45.718-47.034-86.792-82.321-122.078zM707.576 533.474L448.465 274.363 316.424 406.404c-12.497 12.497-32.758 12.497-45.255 0s-12.497-32.758 0-45.255l154.668-154.668c6.249-6.249 14.438-9.373 22.627-9.373s16.379 3.124 22.627 9.373L752.83 488.219c12.497 12.497 12.497 32.758 0 45.255-12.496 12.497-32.758 12.497-45.254 0z"  horiz-adv-x="1024" />

    
    <glyph glyph-name="icon-horn" unicode="&#58899;" d="M227.556 583.111v28.445h-85.334c-47.457 0-85.333-38.326-85.333-85.603v-283.906c0-47.583 38.205-85.603 85.333-85.603h85.334V583.111z m56.888-415.289L512-14.222V782.222L284.444 600.178v-432.356z m-56.888 45.511v-56.889l254.317-211.93c47.86-39.885 87.016-21.699 87.016 40.984V782.502c0 62.718-38.958 81.033-87.016 40.985L227.556 611.556v-56.89h-56.89c-31.637 0-56.888-25.234-56.888-56.364v-228.604c0-30.71 25.47-56.365 56.889-56.365h56.889z m455.113 384.419l241.359 241.36 40.226-40.227-241.359-241.36-40.226 40.227z m0-424.645l241.359-241.36 40.226 40.227-241.359 241.36-40.226-40.227z m-0.002 267.782H967.11V384H682.667v56.889z"  horiz-adv-x="1024" />

    
    <glyph glyph-name="contact-us" unicode="&#58904;" d="M740.8-32H459.2C372.8-32 304 38.4 304 123.2v46.4c0 86.4 70.4 155.2 155.2 155.2h281.6c86.4 0 155.2-70.4 155.2-155.2v-46.4c0-84.8-70.4-155.2-155.2-155.2zM315.2 248c-4.8 0-11.2 1.6-14.4 6.4L68.8 464c-6.4 4.8-8 12.8-6.4 20.8 1.6 8 6.4 14.4 12.8 17.6l752 308.8c9.6 4.8 20.8 0 27.2-8 6.4-9.6 4.8-20.8-3.2-28.8l-520-520c-4.8-4.8-11.2-6.4-16-6.4zM124.8 473.6l188.8-172.8 425.6 425.6-614.4-252.8z m449.6-486.4c-4.8 0-11.2 1.6-14.4 6.4l-195.2 176-12.8 12.8c-8 8-8 22.4 0 32 8 8 22.4 8 32 0l12.8-12.8L566.4 48l254.4 630.4c4.8 11.2 17.6 17.6 28.8 12.8 11.2-4.8 17.6-17.6 12.8-28.8L595.2 1.6c-3.2-6.4-8-11.2-16-12.8-1.6-1.6-3.2-1.6-4.8-1.6z"  horiz-adv-x="1024" />

    
    <glyph glyph-name="about-us" unicode="&#58905;" d="M716.8-80C587.2-80 480 27.2 480 156.8c0 129.6 107.2 236.8 236.8 236.8 129.6 0 236.8-107.2 236.8-236.8C955.2 27.2 848-80 716.8-80zM712-16H232c-83.2 0-152 68.8-152 152V472c0 6.4 3.2 12.8 8 17.6l105.6 88c9.6 8 24 6.4 33.6-3.2 8-9.6 6.4-24-3.2-33.6l-97.6-80V136c0-57.6 46.4-104 104-104h480c57.6 0 104 46.4 104 104V460.8L472 745.6l-88-72c-9.6-8-24-6.4-33.6 3.2-8 9.6-6.4 24 3.2 33.6L456 795.2c8 6.4 20.8 6.4 30.4 0l368-304c4.8-4.8 8-11.2 8-17.6v-336C864 52.8 795.2-16 712-16zM270.4 588.8c-6.4 0-12.8 3.2-17.6 8-8 9.6-6.4 24 3.2 33.6l43.2 36.8c9.6 8 24 6.4 33.6-3.2 8-9.6 6.4-24-3.2-33.6l-43.2-36.8c-6.4-3.2-11.2-4.8-16-4.8zM656 227.2H288c-11.2 0-20.8 9.6-20.8 20.8s9.6 20.8 20.8 20.8h368c11.2 0 20.8-9.6 20.8-20.8s-9.6-20.8-20.8-20.8z"  horiz-adv-x="1024" />

    
    <glyph glyph-name="my-order" unicode="&#58906;" d="M756.8-48H475.2C388.8-48 320 22.4 320 107.2v46.4c0 86.4 70.4 155.2 155.2 155.2h281.6c86.4 0 155.2-70.4 155.2-155.2v-46.4c0-84.8-70.4-155.2-155.2-155.2zM688 481.6H320c-12.8 0-22.4 9.6-22.4 22.4s9.6 22.4 22.4 22.4h368c12.8 0 22.4-9.6 22.4-22.4s-9.6-22.4-22.4-22.4z m0-144H320c-12.8 0-22.4 9.6-22.4 22.4s9.6 22.4 22.4 22.4h368c12.8 0 22.4-9.6 22.4-22.4s-9.6-22.4-22.4-22.4z m0-128H320c-12.8 0-22.4 9.6-22.4 22.4s9.6 22.4 22.4 22.4h368c12.8 0 22.4-9.6 22.4-22.4s-9.6-22.4-22.4-22.4zM704 1.6H304c-83.2 0-150.4 67.2-150.4 150.4V600c0 83.2 67.2 150.4 150.4 150.4 12.8 0 22.4-9.6 22.4-22.4s-9.6-22.4-22.4-22.4c-57.6 0-105.6-48-105.6-105.6v-448c0-57.6 48-105.6 105.6-105.6h400c57.6 0 105.6 48 105.6 105.6V600c0 57.6-48 105.6-105.6 105.6-12.8 0-22.4 9.6-22.4 22.4s9.6 22.4 22.4 22.4c83.2 0 150.4-67.2 150.4-150.4v-448c1.6-83.2-67.2-150.4-150.4-150.4zM609.6 652.8H400c-22.4 0-41.6 19.2-41.6 41.6V768c0 22.4 19.2 41.6 41.6 41.6h209.6c22.4 0 41.6-19.2 41.6-41.6v-73.6c0-22.4-19.2-41.6-41.6-41.6z m-206.4 44.8h203.2v67.2H403.2v-67.2z"  horiz-adv-x="1024" />

    
    <glyph glyph-name="address" unicode="&#58907;" d="M700.8-48C571.2-48 464 59.2 464 188.8c0 129.6 107.2 236.8 236.8 236.8 129.6 0 236.8-107.2 236.8-236.8C939.2 59.2 832-48 700.8-48zM732.8 70.4H224c-68.8 0-123.2 40-123.2 89.6v4.8l16 75.2c3.2 11.2 16 19.2 27.2 16 12.8-3.2 19.2-14.4 17.6-27.2l-16-72c1.6-20.8 33.6-43.2 76.8-43.2h510.4c44.8 0 75.2 22.4 76.8 43.2l-16 76.8c-3.2 12.8 4.8 24 17.6 25.6 12.8 1.6 24-4.8 25.6-17.6l16-80v-4.8c3.2-46.4-51.2-86.4-120-86.4zM472 81.6c-6.4 0-11.2 1.6-16 6.4-11.2 11.2-254.4 259.2-254.4 408 0 33.6 6.4 67.2 17.6 99.2 4.8 11.2 17.6 17.6 28.8 12.8 11.2-4.8 17.6-17.6 12.8-28.8-9.6-27.2-14.4-54.4-14.4-83.2 0-100.8 150.4-281.6 225.6-360 80 78.4 241.6 259.2 241.6 360 0 129.6-104 233.6-233.6 233.6-30.4 0-60.8-6.4-89.6-17.6-4.8-1.6-11.2-4.8-16-6.4-11.2-6.4-24-1.6-30.4 9.6-4.8 11.2-1.6 24 9.6 30.4 6.4 3.2 12.8 6.4 19.2 8 33.6 14.4 68.8 20.8 107.2 20.8 153.6 0 278.4-124.8 278.4-278.4 0-148.8-259.2-398.4-270.4-408-6.4-4.8-11.2-6.4-16-6.4zM264 612.8c-4.8 0-8 1.6-12.8 3.2-9.6 6.4-12.8 20.8-6.4 30.4C256 664 270.4 680 286.4 696c9.6 8 22.4 8 32 0 8-9.6 8-22.4 0-32-12.8-12.8-24-25.6-33.6-41.6-4.8-4.8-12.8-9.6-20.8-9.6z m216-211.2c-60.8 0-110.4 49.6-110.4 110.4S419.2 622.4 480 622.4 590.4 572.8 590.4 512 540.8 401.6 480 401.6z m0 176c-36.8 0-65.6-28.8-65.6-65.6s28.8-65.6 65.6-65.6 65.6 28.8 65.6 65.6-30.4 65.6-65.6 65.6z m344 153.6h-56c-9.6 0-16 6.4-16 16s6.4 16 16 16h56c9.6 0 16-6.4 16-16s-6.4-16-16-16zM796.8 704c-9.6 0-16 6.4-16 16v56c0 9.6 6.4 16 16 16s16-6.4 16-16v-56c0-9.6-8-16-16-16z"  horiz-adv-x="1024" />

    
    <glyph glyph-name="wait-ship" unicode="&#58908;" d="M897.016 758.9H132.403c-66.111 0-119.94-53.828-119.94-119.939v-506.49c0-66.112 53.829-119.94 119.94-119.94h764.432c66.112 0 119.94 53.828 119.94 119.94V638.78c0.18 66.291-53.648 120.12-119.759 120.12z m48.048-120.12v-76.226H662.376V687.01h234.64c26.553 0 48.048-21.675 48.048-48.228z m-812.661 48.23h234.64v-124.456H84.355v76.227c0 26.553 21.495 48.228 48.048 48.228z m764.613-602.768H132.403c-26.553 0-48.229 21.676-48.229 48.048V490.663h282.689v-177.019l147.576 55.273 147.575-55.273V490.663h282.689V132.47c0.361-26.553-21.134-48.229-47.687-48.229z"  horiz-adv-x="1024" />

    
    <glyph glyph-name="wait-pay" unicode="&#58909;" d="M899.906 665.514H126.803c-15.715 0-30.707-3.251-44.254-8.85v21.314c0 24.385 19.87 44.254 44.254 44.254h576.395c51.842 0 51.842 70.989 0 70.989H126.984C63.402 793.04 11.74 741.379 11.74 677.797v-593.013c0-63.582 51.66-115.243 115.243-115.243h773.103c63.582 0 115.243 51.66 115.243 115.243V550.27c-0.18 63.402-51.842 115.243-115.424 115.243z m0-625.165H126.803c-24.385 0-44.254 19.869-44.254 44.254v466.03c0.18 24.204 20.05 43.893 44.254 43.893h773.103c24.385 0 44.255-19.87 44.255-44.255v-118.855H520.399c-62.86 0-113.978-50.938-113.978-113.979S457.359 203.46 520.399 203.46h423.762v-118.856c0-24.385-19.87-44.254-44.255-44.254z m-283.23 277.088c0-47.145-38.113-85.258-85.258-85.258s-85.258 38.113-85.258 85.258 38.113 85.258 85.258 85.258 85.258-38.113 85.258-85.258z"  horiz-adv-x="1024" />

    
    <glyph glyph-name="wait-receipt" unicode="&#58910;" d="M414.55 185.034h151.369v-70.988h-151.37zM946.87 114.227h-49.493v70.988h44.978V708.143H377.52v-79.658c0-36.668-29.804-66.473-66.473-66.473h-89.232c-6.322 0-19.146-5.96-23.12-11.018L95.193 424.913c-5.6-6.864-11.56-23.482-11.56-32.333v-207.546h20.953v-70.988h-28.36c-35.042 0.18-63.582 29.985-63.582 66.473V392.76c0 25.288 11.56 57.802 27.637 77.31l103.502 126.08c17.52 21.315 50.396 36.85 78.032 36.85h84.717v79.658c0 36.668 29.804 66.472 66.472 66.472h574.047c36.668 0 66.472-29.804 66.472-66.472v-532.14c-0.18-36.488-29.984-66.292-66.653-66.292zM733.183-8.241c-74.42 0-134.931 60.511-134.931 134.931s60.511 134.932 134.931 134.932 134.932-60.511 134.932-134.932S807.603-8.24 733.183-8.24z m0 198.694c-35.223 0-63.943-28.72-63.943-63.943s28.72-63.944 63.943-63.944 63.944 28.72 63.944 63.944-28.72 63.943-63.944 63.943zM247.285-8.24c-74.42 0-134.932 60.511-134.932 134.931s60.511 134.932 134.932 134.932 134.931-60.511 134.931-134.932S321.705-8.24 247.285-8.24z m0 198.694c-35.224 0-63.944-28.72-63.944-63.943s28.72-63.944 63.944-63.944 63.943 28.72 63.943 63.944-28.72 63.943-63.943 63.943z m80.922 154.982h-163.29c-14.993 0-27.095 7.225-32.695 19.328-5.6 12.102-3.251 26.01 6.503 37.39l80.742 95.374c10.658 12.644 29.804 21.495 46.242 21.495h66.834c11.38 0 22.398-4.696 30.346-12.825s12.283-19.327 11.74-30.888l-3.07-88.148c-0.903-23.12-20.23-41.726-43.352-41.726z m-11.199 43.713z m-108.74 10.838H317.37l2.348 64.305h-54.01c-0.902-0.18-3.973-1.445-4.876-2.53l-52.564-61.775z"  horiz-adv-x="1024" />

    
    <glyph glyph-name="edit" unicode="&#58912;" d="M114.52 186l488.77 480.65c28.19 23.43 59.49 57.13 95.9 39.92 16-7.54 65.23-59.16 70.42-75.44 16.36-51.37-63-99.48-94.39-130.91L345.14 170.14c-29.73-29.72 16.39-75.86 46.12-46.12l309.86 309.86C780.52 513.27 898.4 582.4 801.5 692.5c-32 36.36-69.17 89-122.67 91.4-59.3 2.63-99.07-49.05-137.69-86.59 0 0-483.21-444.48-487.39-472.16-9.16-60.57-4.46-150.06-4.46-208.53C49.29-1 64.24-16 81.91-16h862.5c42 0 42 65.23 0 65.23H114.52c-4.51 39.84 0 136.78 0 136.78 17.92 49.51 488.77 480.64 488.77 480.64zM113 199.1c0 5.32 1.1 4.33 0 0z"  horiz-adv-x="1024" />

    
    <glyph glyph-name="delete" unicode="&#58913;" d="M809.79 487.55l-14.95-99.91-29.31-195.8-20.3-135.59c-0.85-5.65-1.45-11.29-2.18-17 0.12 0.91 1.48 7.16-0.15 2.14 0.36 1.12 3.43 5.89 0.54 1.9 0.42 0.59 4.7 5.43 1.09 1.55-1.26-1.36-4.42-3.27 1.56 1.1-1.64-1.19-5-1.78 1.9 0.53-3.82-1.29-0.63 1.16 2.14-0.14a10.54 10.54 0 0 1-2.23-0.09h-2.56c-13.79-0.07-27.59 0-41.38 0H285.82c-3.17 0-6.36 0.09-9.53 0-2.08-0.06-6 0.9 1.74-0.34-2 0.31-4.89 2.35 1.68-1-4.37 2.2 2-0.94 1.27-1.47-0.34-0.24-2.65 3.12-2.85 2.85l2.47-3q-1.89 3.55-0.24-0.07l0.77-1.83q-1 4-0.36-0.08l0.21-2.06a33.85 33.85 0 0 1-0.64 6.27c-0.2 1.49-0.37 2.81-0.57 4.22 0 0.3-0.08 0.6-0.13 0.9-5.29 37.3-10.84 74.57-16.26 111.86L234.8 359.23l-19.58 134.65-1 6.78c-2.35 16.14-23.63 26.42-38.21 21.7-17.65-5.71-24.22-20.92-21.7-38.22l14.59-100.25 28.73-197.69 20.87-143.56c0.42-2.91 1.5-6.37 1.36-9.32 0-0.59 2.63-15.24-0.5 2.92-1.5 8.74 0.33-3.36 0.31-3.17a50.23 50.23 0 0 1 1.26-7.17 58.38 58.38 0 0 1 14.64-24.95c10.9-10.9 25.35-16.3 40.59-16.8 10.19-0.34 20.45 0 30.65 0h439.47c21.24 0.22 40.28 10.33 51.31 28.7a56.6 56.6 0 0 1 5.8 14c1.24 4.51 2.51 20.12 0.77 6.29l0.09 0.63c0.19 1.34 0.4 2.68 0.6 4l2.81 18.75 10.39 69.37 29.5 197.12 21.05 140.62 1.11 7.4c2.39 16-4 34.19-21.7 38.22-14.78 3.36-35.64-4.51-38.22-21.7zM372.74 381.08l37.88-179L416 176.7c3.37-15.92 22.92-26.64 38.22-21.69 16.81 5.44 25.31 21.15 21.7 38.21L438 372.21l-5.37 25.39c-3.37 15.92-22.92 26.65-38.22 21.7-16.81-5.44-25.31-21.16-21.69-38.22z m218.68 16.52l-37.88-179-5.38-25.39c-3.35-15.86 4.67-34.33 21.7-38.21 15.6-3.56 34.62 4.69 38.22 21.69l37.88 179 5.37 25.39c3.36 15.86-4.66 34.34-21.69 38.22-15.6 3.55-34.62-4.7-38.22-21.7zM141.77 541.66H791c30 0 60-0.77 90 0h1.23c16.25 0 31.82 14.29 31.07 31.07s-13.65 31.06-31.07 31.06H233c-30 0-60 0.78-90 0h-1.23c-16.25 0-31.82-14.29-31.07-31.06s13.65-31.07 31.07-31.07z m120.6 108.19c0 23.57-0.25 47.15 0 70.72v1.1c-0.22 6.42 0.12-1.91-0.47-1.85-0.33 0 1.15 3.92 1.08 3.94s-3.14-7.24-0.59-1.95c2.11 4.39-0.26-2.48-1.35-1.45l1.36 1.45q3 2.66-0.12 0.16l-1.57-1.21 1.69 1.07 1.76 0.95-3.71-1.55c-0.14 0.56 4 0.76 3.94 1.09 0.13-1.31-7.08-0.24-2-0.48h0.46c3.17-0.1 6.35 0 9.52 0h489.04c7.24 0.28-1.52-0.53 0.05 0.2-2.67-1.24-2 0.67 0.9-0.51 3.87-1.58-5.62 2.53-1.86 0.78 5.37-2.51-1.42-0.05-0.57 0.87 0-0.06 3-2.62 2.82-2.82 0.75 0.7-5.6 5.36-1.35 1.45 2.87-2.64-1.41-0.54 0.18 0.09l-0.78 1.86a23 23 0 0 0 0.85-2.94c0.44-3.73 0 6.93-0.24 0.91v-1.38c0.05-5.13 0-10.25 0-15.37v-55.13c0-16.25 14.29-31.82 31.07-31.07s31.06 13.65 31.06 31.07c0 23.84 0.61 47.77 0 71.61C822.67 756 796.06 783 761.41 784c-2.23 0.06-4.47 0-6.7 0H277.08c-22.64 0-45.35-2-61.25-21.21a65.61 65.61 0 0 1-15.59-41.45c-0.12-4.57 0-9.17 0-13.74v-57.72c0-16.25 14.29-31.82 31.07-31.07s31.06 13.65 31.06 31.07z"  horiz-adv-x="1024" />

    
    <glyph glyph-name="arrow-right" unicode="&#58914;" d="M650.93 340.69L413.81 103.56a35 35 0 0 0-49.55 49.55L595.15 384l-230.9 230.9a35 35 0 1 0 49.55 49.55L651 427.33a61.55 61.55 0 0 0-0.07-86.64z"  horiz-adv-x="1024" />

    
    <glyph glyph-name="arrow-under" unicode="&#58915;" d="M511.31 226.6a61.19 61.19 0 0 0-43.25 17.79l-237.12 237.2a35 35 0 0 0 49.55 49.55l230.89-230.9 230.9 230.89a35 35 0 1 0 49.55-49.55L554.7 244.46a61.41 61.41 0 0 0-43.39-17.86z"  horiz-adv-x="1024" />

    
    <glyph glyph-name="arrow-up" unicode="&#58916;" d="M554.7 523.54l237.13-237.12a35 35 0 1 0-49.55-49.55l-230.9 230.89-230.89-230.9a35 35 0 1 0-49.55 49.55l237.12 237.2a61.55 61.55 0 0 0 86.64-0.07z"  horiz-adv-x="1024" />

    
    <glyph glyph-name="arrow-left" unicode="&#58917;" d="M354 384.08a61.19 61.19 0 0 0 17.79 43.25L609 664.45a35 35 0 1 0 49.55-49.55L427.62 384l230.89-230.9A35 35 0 0 0 609 103.56L371.84 340.69A61.41 61.41 0 0 0 354 384.08z"  horiz-adv-x="1024" />

    
    <glyph glyph-name="close" unicode="&#58918;" d="M836.455 754.789c13.274 0 24.348-4.326 33.134-13.186 8.765-8.854 13.205-19.874 13.205-33.163 0-12.978-4.49-23.997-13.369-32.857L577.511 384l291.914-291.48c8.88-8.859 13.369-19.879 13.369-32.96 0-13.185-4.44-24.309-13.2-33.064-8.79-8.855-19.865-13.285-33.14-13.285-13.07 0-24.021 4.534-32.95 13.497L512 318.494 220.496 26.708c-8.909-8.963-19.874-13.497-32.96-13.497-13.265 0-24.32 4.43-33.144 13.29-8.766 8.75-13.176 19.874-13.176 33.059 0 13.081 4.46 24.101 13.369 32.96L446.479 384 154.585 675.588c-8.91 8.85-13.369 19.874-13.369 32.847 0 13.29 4.41 24.309 13.176 33.163 8.824 8.865 19.874 13.19 33.143 13.19 13.082 0 24.052-4.43 32.96-13.387l291.51-291.796L803.509 741.39c8.924 8.973 19.87 13.398 32.946 13.398"  horiz-adv-x="1024" />

    
    <glyph glyph-name="add" unicode="&#58919;" d="M906.212 330.267H565.733v-340.48c0-19.8-24.067-53.759-53.76-53.759-29.675 0-53.76 33.958-53.76 53.76V330.267H117.734c-19.784 0-53.76 24.067-53.76 53.76 0 29.693 33.976 53.76 53.76 53.76h340.48V778.266c0 19.784 24.084 53.76 53.76 53.76 29.692 0 53.759-33.976 53.759-53.76v-340.48h340.48c19.783 0 53.759-24.066 53.759-53.76 0-29.692-33.976-53.759-53.76-53.759z"  horiz-adv-x="1024" />

    
    <glyph glyph-name="reduce" unicode="&#58920;" d="M117.734 437.787h788.478c19.784 0 53.76-24.067 53.76-53.76 0-29.693-33.976-53.76-53.76-53.76H117.734c-19.784 0-53.76 24.067-53.76 53.76 0 29.693 33.976 53.76 53.76 53.76z"  horiz-adv-x="1024" />

    
    <glyph glyph-name="clock" unicode="&#58921;" d="M511.914 832.01c-247.012 0-447.925-200.912-447.925-447.924s200.913-447.925 447.925-447.925 447.925 200.913 447.925 447.925S758.926 832.011 511.914 832.011z m0-831.687c-211.577 0-383.763 172.186-383.763 383.763 0 211.577 172.014 383.763 383.763 383.763s383.763-172.014 383.763-383.763-172.186-383.763-383.763-383.763zM672.06 384.086H512.085v223.79c0 17.718-14.277 32.167-31.995 32.167-17.717 0-31.994-14.45-31.994-32.167V351.92c0-17.717 14.277-31.994 31.994-31.994H672.06c17.718 0 32.167 14.277 32.167 31.994-0.172 17.89-14.621 32.167-32.167 32.167z"  horiz-adv-x="1024" />

    
    <glyph glyph-name="role" unicode="&#58922;" d="M712-112c-128 0-232 104-232 232s104 232 232 232 232-104 232-232-104-232-232-232zM452.8 388.8c-28.8 0-57.6 4.8-84.8 16-57.6 22.4-100.8 65.6-126.4 121.6s-25.6 118.4-3.2 176S304 803.2 360 828.8c56 22.4 296 28.8 326.4-6.4 16-17.6 12.8-52.8-8-144-1.6-4.8-1.6-9.6-3.2-11.2-1.6-11.2-3.2-20.8-4.8-30.4C656 537.6 641.6 451.2 544 408c-28.8-12.8-59.2-19.2-91.2-19.2z m68.8 409.6c-57.6 0-116.8-4.8-140.8-14.4-44.8-19.2-78.4-54.4-96-99.2-17.6-44.8-16-92.8 3.2-137.6s54.4-78.4 99.2-96c44.8-17.6 94.4-17.6 137.6 1.6 73.6 32 83.2 96 97.6 192 1.6 9.6 3.2 20.8 4.8 32 0 1.6 1.6 6.4 3.2 14.4 16 62.4 17.6 88 17.6 99.2-19.2 4.8-72 8-126.4 8z m132.8-11.2z m-6.4 8zM456-67.2c-96 0-185.6 11.2-252.8 32-104 32-126.4 76.8-126.4 110.4 0 140.8 108.8 262.4 270.4 302.4 6.4 1.6 11.2 0 16-3.2 43.2-33.6 100.8-40 152-19.2 11.2 4.8 22.4 11.2 32 19.2 4.8 3.2 11.2 4.8 16 3.2 158.4-40 270.4-163.2 270.4-302.4 0-105.6-203.2-142.4-377.6-142.4zM347.2 336c-136-36.8-232-144-232-260.8 0-57.6 148.8-102.4 339.2-102.4s339.2 44.8 339.2 102.4c0 118.4-94.4 224-232 260.8-11.2-8-20.8-12.8-32-17.6-59.2-27.2-128-19.2-182.4 17.6zM440 500.8c-12.8 0-24 11.2-24 24s9.6 24 24 24c3.2 0 33.6 1.6 51.2 25.6 16 20.8 14.4 44.8 12.8 51.2-1.6 12.8 6.4 25.6 20.8 27.2 12.8 1.6 25.6-6.4 27.2-19.2 1.6-11.2 6.4-52.8-22.4-89.6-32-40-80-43.2-89.6-43.2zM528 152H361.6c-11.2 0-19.2 8-19.2 19.2 0 57.6 46.4 104 102.4 104s102.4-46.4 102.4-104c0-9.6-8-19.2-19.2-19.2z m-144 38.4h123.2c-8 27.2-32 46.4-60.8 46.4S392 217.6 384 190.4z"  horiz-adv-x="1024" />

    
    <glyph glyph-name="order-cancel" unicode="&#58923;" d="M1011.536 538.35c24.024 42.629-37.57 77.31-61.595 34.68l-41.365-86.341c-21.133 87.787-68.098 167.807-135.834 229.583C688.567 793.04 579.646 835.308 465.668 835.308c-251.439 0-455.733-204.294-455.733-455.553s204.294-455.552 455.552-455.552c154.621 0 297.32 77.49 381.855 207.184 29.805 45.7-29.443 84.355-59.247 38.655-71.53-109.643-192.011-175.032-322.608-175.032-212.242 0-384.925 172.684-384.925 384.926S253.245 764.68 465.487 764.68c188.218 0 345.548-133.306 378.423-315.021l-108.92 54.189c-44.616 25.108-79.298-36.488-34.682-61.595l172.865-90.135c22.398-11.38 38.835-7.768 48.228 13.547l90.135 172.684zM596.987 304.432h-96.096v40.1h96.096c41.365 0 41.365 64.847 0 64.847H508.84l75.685 75.684 37.932 37.933c21.315 21.314-24.566 67.014-45.88 45.88l-8.129-8.128-75.323-75.323-27.817-27.818-103.14 103.14c-21.315 21.315-67.015-24.565-45.881-45.88L421.775 409.38H334.89c-34.5 0-34.5-64.847 0-64.847h101.153v-40.1H334.891c-34.5 0-34.5-64.847 0-64.847h101.153v-82.187c0-34.5 64.847-34.5 64.847 0v82.187h96.096c41.365 0 41.365 64.847 0 64.847z"  horiz-adv-x="1024" />

    
    <glyph glyph-name="order-cancel1" unicode="&#58924;" d="M512-128C230.4-128 0 102.4 0 384S230.4 896 512 896s512-230.4 512-512-230.4-512-512-512z m0 960C262.4 832 64 633.6 64 384s198.4-448 448-448 448 198.4 448 448S761.6 832 512 832zM512 262.4c-19.2 0-32 12.8-32 32V627.2c0 12.8 12.8 25.6 32 25.6s32-12.8 32-25.6v-332.8c0-19.2-12.8-32-32-32zM460.8 140.8a0.8 0.8 0 1 1 102.4 0 0.8 0.8 0 1 1-102.4 0z"  horiz-adv-x="1024" />

    
    <glyph glyph-name="order-finished" unicode="&#58925;" d="M435.2 211.2c-6.4 0-12.8 0-19.2 6.4L268.8 358.4c-12.8 12.8-19.2 32-6.4 44.8 12.8 12.8 32 12.8 44.8 0l147.2-140.8c12.8-12.8 12.8-32 0-44.8 0-6.4-6.4-6.4-19.2-6.4zM435.2 211.2c-6.4 0-19.2 6.4-25.6 12.8-12.8 12.8-12.8 32 0 44.8l300.8 281.6c12.8 12.8 32 12.8 44.8 0 12.8-12.8 12.8-32 0-44.8L454.4 224c0-12.8-6.4-12.8-19.2-12.8zM512-128C230.4-128 0 102.4 0 384S230.4 896 512 896s512-230.4 512-512-230.4-512-512-512z m0 960C262.4 832 64 633.6 64 384s198.4-448 448-448 448 198.4 448 448S761.6 832 512 832z"  horiz-adv-x="1024" />

    
    <glyph glyph-name="order-pay" unicode="&#58926;" d="M512 352c-19.2 0-32 12.8-32 32V627.2c0 12.8 12.8 25.6 32 25.6s32-12.8 32-25.6V384c0-19.2-12.8-32-32-32zM832 352H512c-19.2 0-32 12.8-32 32s12.8 32 32 32h320c19.2 0 32-12.8 32-32s-12.8-32-32-32zM512-128C230.4-128 0 102.4 0 384S230.4 896 512 896s512-230.4 512-512c0-128-44.8-243.2-128-339.2-12.8-12.8-32-12.8-44.8 0-12.8 12.8-12.8 32 0 44.8C921.6 166.4 960 275.2 960 384c0 249.6-198.4 448-448 448S64 633.6 64 384s198.4-448 448-448c76.8 0 153.6 19.2 217.6 57.6 12.8 6.4 32 0 44.8-12.8 6.4-12.8 0-32-12.8-44.8-76.8-44.8-160-64-249.6-64z"  horiz-adv-x="1024" />

    
    <glyph glyph-name="order-send" unicode="&#58927;" d="M959.488 862.016h-608c-35.296 0-64-28.704-64-64v-122.24L17.632 540.608C6.848 535.2 0 524.096 0 512v-420.864c0-17.696 14.304-32 32-32s32 14.304 32 32V492.224l269.856 135.168C344.672 632.8 351.52 643.904 351.52 656V798.016h608v-700c0-17.696 14.304-32 32-32s32 14.304 32 32v700c-0.032 35.296-28.736 64-64.032 64zM161.344 317.344H320c17.696 0 32 14.336 32 32V510.688c0 17.664-14.304 32-32 32s-32-14.336-32-32v-129.344H161.344c-17.696 0-32-14.336-32-32s14.304-32 32-32zM768 220.672c-77.248 0-141.888-55.072-156.768-128h-204.48c-14.88 72.928-79.488 128-156.768 128-88.224 0-160-71.776-160-160s71.776-160 160-160c77.248 0 141.888 55.072 156.768 128h204.48c14.88-72.928 79.488-128 156.768-128 88.224 0 160 71.776 160 160s-71.776 160-160 160z m-518.016-256c-52.928 0-96 43.072-96 96s43.072 96 96 96 96-43.072 96-96-43.04-96-96-96z m518.016 0c-52.928 0-96 43.072-96 96s43.072 96 96 96 96-43.072 96-96-43.072-96-96-96z"  horiz-adv-x="1024" />

    


  </font>
</defs>
</svg>
